<?xml version="1.0" encoding="UTF-8" standalone="no"?>
<!DOCTYPE svg PUBLIC "-//W3C//DTD SVG 1.1//EN" "http://www.w3.org/Graphics/SVG/1.1/DTD/svg11.dtd">
<svg width="100%" height="100%" viewBox="0 0 1292 829" version="1.1" xmlns="http://www.w3.org/2000/svg" xmlns:xlink="http://www.w3.org/1999/xlink" xml:space="preserve" xmlns:serif="http://www.serif.com/" style="fill-rule:evenodd;clip-rule:evenodd;stroke-linejoin:round;stroke-miterlimit:2;">
    <g transform="matrix(1,0,0,1,-314,-134)">
        <g transform="matrix(1.2237,0,0,1.2237,-214.757,-111.942)">
            <path d="M1169.19,239.13C1169.26,239.042 1176.18,229.265 1180.33,225.897C1184.5,222.51 1187.23,221.076 1187.23,221.076L1191.66,231.756C1191.66,231.756 1206.24,217.456 1229.16,209.489C1252.08,201.522 1283.33,201.285 1283.33,201.285L1279.29,213.264C1279.29,213.264 1292.7,209.751 1317.7,210.793C1342.7,211.835 1359.76,216.781 1359.76,216.781L1343.61,230.714C1343.61,230.714 1368.22,234.36 1384.11,247.901C1399.99,261.443 1405.71,281.864 1406.76,295.689C1408.46,317.951 1404.68,339.176 1404.68,339.176C1404.68,339.176 1394.65,324.335 1376.81,315.347C1362.13,307.956 1352.86,305.714 1352.86,305.714L1351.66,322.04C1435.87,381.073 1487.16,459.263 1487.16,545.006C1487.16,728.973 1251.09,878.161 960.001,878.161C668.91,878.161 432.843,728.973 432.843,545.006C432.843,361.048 668.91,211.856 960.001,211.856C1034.32,211.856 1105.05,221.58 1169.19,239.13Z"/>
            <path d="M1334.77,325.449C1347.4,333.745 1359.27,342.431 1370.34,351.473C1436.55,405.564 1473.56,472.002 1473.56,544.44C1473.56,616.849 1435.57,683.439 1369.38,737.725C1276.68,813.756 1128.45,864.985 960.363,864.985C792.277,864.985 643.042,813.756 550.344,737.725C484.159,683.439 446.17,616.849 446.17,544.44C446.17,472.002 485.175,405.564 551.386,351.473C644.074,275.75 792.294,224.894 960.363,224.894C1031.42,224.894 1099.11,233.985 1160.59,250.203C1157.01,255.362 1152.95,262.739 1148.86,273.248C1144.83,283.629 1143.4,293.103 1143.11,300.673C1087.9,286.493 1026.52,278.894 960.363,278.894C806.758,278.894 676.894,320.86 592.183,390.066C540.124,432.595 507.17,487.485 507.17,544.44C507.17,601.422 540.14,657.48 592.224,700.199C673.06,766.501 806.775,810.985 960.363,810.985C1113.95,810.985 1244.8,767.673 1329.5,698.199C1381.59,655.48 1412.56,601.422 1412.56,544.44C1412.56,491.358 1383.06,439.201 1336.91,397.923C1337,388.746 1334.8,376.048 1323.48,362.97C1315.07,353.259 1306.09,346.372 1298.42,338.759C1289.86,330.256 1285.25,323.324 1289.4,318.172C1291.83,315.168 1298.38,314.47 1308.95,316.634C1317.77,318.439 1326.77,321.814 1334.77,325.449Z" style="fill:rgb(254,203,40);"/>
            <g transform="matrix(4.16667,0,0,4.16667,777.262,545.489)">
                <path d="M0,-29.804L1.986,-32.441C2.435,-32.982 2.848,-33.286 3.504,-33.559C5.072,-34.182 7.994,-33.999 10.141,-32.708C12.623,-30.517 9.039,-28.791 6.858,-32.283C6.992,-30.146 8.215,-28.983 10.343,-28.776C9.058,-28.136 9.049,-27.016 10.357,-26.703C11.199,-27.295 12.184,-27.443 12.773,-26.898L12.525,-28.116C13.369,-28.72 14.271,-28.553 14.692,-27.911L15.199,-29.53C17.623,-28.179 21.021,-27.732 22.536,-26.48C23.435,-25.737 23.671,-24.711 22.646,-23.044C20.743,-23.719 18.796,-23.739 17.053,-23.441C14.518,-23.007 12.414,-21.902 11.503,-21.166C11.266,-22.056 11.611,-22.736 12.184,-23.265C13.719,-24.502 16.389,-25.94 12.67,-24.9C7.056,-22.674 8.609,-19.885 11.246,-16.937C12.563,-15.039 16.225,-14.867 19.184,-14.922L17.869,-13.53C17.082,-12.532 12.561,-13.171 8.002,-14.6C5.572,-15.362 3.13,-16.348 1.238,-17.43C1.35,-9.665 5.725,-5.5 11.163,-4.363C16.85,-3.174 23.701,-5.299 28.056,-10.086L27.785,-7.443C30.924,-9.544 32.103,-11.688 33.8,-14.854C33.589,-13.42 33.431,-12.347 34.133,-11.271L40.163,-19.299C46.62,-24.353 50.005,-27.19 57.01,-30.473C63.188,-33.37 72.191,-36.017 78.984,-36.175C87.432,-36.327 102.093,-32.923 104.971,-23.426C109.79,-23.657 122.199,-26.738 121.646,-34.329C121.339,-38.545 118.632,-40.646 115.337,-42.443C110.52,-45.071 104.306,-46.472 101.445,-48.009C92.715,-52.697 94.853,-62.857 101.827,-66.054C100.232,-62.957 99.978,-59.494 101.887,-56.499C101.526,-60.753 105.753,-68.405 113.572,-68.563C109.219,-65.779 106.942,-58.952 109.264,-55.779C109.847,-59.908 112.802,-65.739 121.905,-63.75C114.288,-62.646 112.069,-55.684 115.148,-51.115C117.298,-47.921 121.157,-46.103 124.002,-42.678C126.356,-39.844 128.271,-36.253 127.396,-32.367C125.381,-23.427 113.446,-21.72 105.766,-21.023C107.007,-15.582 106.525,-12.382 105.099,-7.207C107.393,-7.345 108.718,-7.185 109.779,-5.769C109.326,-5.559 104.282,-3.493 103.493,0.113C105.612,-0.2 107.57,0.136 109.503,1.882C105.743,5.054 100.05,12.351 102.537,16.847L106.95,24.823C107.878,27.255 93.97,27.4 93.253,32.23C92.922,33.757 93.481,36.544 93.602,36.562C92.753,36.56 91.775,36.171 91.297,35.366C90.753,36.048 90.521,36.911 90.361,38.075C89.309,37.679 87.942,36.144 87.688,34.882C87.176,35.663 86.797,36.777 86.411,37.921C85.427,37.271 84.239,35.782 83.912,34.554C83.068,35.308 82.743,36.456 82.477,37.587C80.512,34.685 80.558,32.15 82.58,29.956C86.107,26.894 99.146,26.017 99.535,23.599C100.82,19.759 98.807,15.122 97.441,10.736C92.901,7.407 90.692,7.802 84.843,6.064C80.316,4.587 74.851,2.226 72.168,-1.671C69.642,-4.36 71.783,-11.692 74.372,-13.718C73.136,-14.053 72.137,-13.951 70.604,-13.445C57.224,-8.978 51.01,1.427 43.229,8.107C40.768,10.22 38.15,11.96 35.099,13.021C34.577,11.323 34.095,9.577 32.674,9.368C32.179,12.696 31.515,14.435 29.823,15.501C28.488,16.341 26.514,16.762 23.48,17.212C24.137,17.196 29.377,20.032 29.444,20.407C28.964,20.339 23.699,20.98 23.56,21.079C23.323,21.048 25.881,21.439 26.666,22.064C24.405,24.507 11.032,27.919 9.282,28.53C6.56,29.474 3.787,30.53 2.15,31.632C-0.227,33.23 -0.368,34.638 0.357,37.4C-0.649,37.234 -1.596,36.661 -2.344,35.821C-2.724,35.886 -2.531,37.827 -2.166,38.626C-3.205,38.325 -5.359,37.087 -5.818,36.042C-5.925,36.761 -5.757,37.82 -5.606,38.759C-6.892,38.53 -7.407,37.64 -8.556,36.251C-8.917,36.198 -8.409,38.589 -8.649,38.556C-10.81,36.532 -10.914,35.173 -10.15,33.337C-8.979,29.851 3.674,26.392 6.983,24.937C8.796,24.099 11.536,22.611 13.436,20.575C14.065,19.501 14.919,17.292 15.005,15.256C15.092,13.203 14.399,11.325 11.909,10.96C11.484,9.235 11.803,8.44 12.337,7.949C13.328,7.034 15.06,7.171 14.118,4.331C11.869,4.73 8.98,10.462 8.913,11.948C9.537,12.184 10.116,12.456 10.552,12.737C11.496,13.343 11.777,13.989 10.417,14.402C8.757,14.544 7.301,14.605 4.726,13.81C1.946,12.845 -0.352,11.796 -2.759,10.396C-6.874,8.007 -10.633,5.464 -13.51,2.48C-14.544,1.552 -15.945,-0.739 -15.726,-3.331C-16.171,-3.005 -18.196,-0.735 -18.244,-0.409C-20.518,-4.036 -18.994,-8.892 -17.567,-10.795C-18.173,-10.883 -20.98,-9.671 -21.889,-9.374C-21.803,-9.119 -22.173,-13.394 -19.121,-17.731C-19.642,-17.734 -22.467,-17.277 -23.763,-15.978C-22.998,-20.132 -21.514,-22.196 -19.103,-23.998C-20.635,-24.226 -21.563,-24.189 -22.737,-24.361C-21.296,-27.51 -16.467,-30.06 -13.498,-30.806C-12.484,-29.136 -8.717,-26.571 -7.078,-27.67C-5.25,-29.233 -7.326,-30.148 -8.288,-30.285C-9.132,-30.411 -9.679,-30.859 -10.002,-32.002C-10.521,-35.98 -5.201,-37.031 -3.159,-35.877C0.461,-33.761 -0.876,-30.541 -1.479,-30.63C-1.822,-30.805 -1.555,-32.593 -1.846,-33.123C-2.44,-34.915 -6.783,-37.139 -8.402,-32.012C-4.762,-35.013 -3.754,-33.525 -3.293,-32.484C-3.141,-31.851 -3.35,-31.272 -3.437,-30.673C-3.543,-29.96 -2.891,-29.375 -2.431,-29.184C-1.623,-28.825 -0.674,-29.415 0,-29.804" style="fill:white;"/>
            </g>
            <g transform="matrix(4.16667,0,0,4.16667,859.147,472.138)">
                <path d="M0,-2.98C0.322,-2.808 0.171,-4.519 -0.251,-4.601C-1.77,-4.657 -3.914,-4.379 -4.695,-2.814C-4.673,-2.772 -1.625,-3.857 0,-2.98M0.405,-1.022C0.444,-2.112 0.863,-3.355 0.418,-4.599C0.679,-4.685 1.831,-4.542 2.191,-4.486C2.103,-3.892 1.733,-2.235 0.405,-1.022M2.87,-2.411C1.421,-1.767 1.596,0.02 4.021,-0.601C5.796,-0.95 7.116,-2.06 8.326,-3.587C6.916,-3.187 4.753,-2.161 2.87,-2.411M-1.894,1.498C-3.403,1.541 -5.054,1.008 -5.877,0.182C-4.317,0.705 -0.608,0.261 -0.827,0.227C-1.002,0.569 -1.441,1.245 -1.894,1.498M0.113,1.584C0.078,1.705 0.619,0.402 0.411,-0.123C-0.013,0.515 -0.487,1.277 -1.081,1.584C-0.793,1.636 0.018,1.567 0.113,1.584M-0.594,-0.628C-0.494,-1.039 -0.539,-1.331 -0.491,-1.924C-1.695,-2.1 -3.41,-1.529 -4.563,-1.209C-3.896,-0.972 -1.922,-0.517 -0.594,-0.628" style="fill:white;"/>
            </g>
            <path d="M696.692,583.556C679.763,584.143 662.084,588.773 650.163,601.339C641.567,612.593 641.896,624.093 646.092,637.127C652.6,653.298 669.167,672.293 687.879,674.106C685.842,671.993 685.496,670.673 685.204,668.198C689.959,670.935 695.563,670.706 700.592,670.448C698.371,668.589 697.163,667.614 697.009,664.414C700.409,666.352 706.504,666.402 709.634,664.756C708.267,662.877 706.75,661.152 706.404,658.881C713.646,660.135 716.334,659.873 721.675,658.66C714.654,651.793 705.438,637.639 711.117,632.523C721.142,626.402 750.088,646.577 759.8,650.206C750.329,653.414 741.109,656.839 732.475,661.927C724.279,667.343 718.492,674.264 716.284,683.848C712.334,710.223 732.313,723.198 752.446,733.823L751.988,724.123C757.721,728.135 764.588,729.61 771.213,731.652L769.521,722.343C776.763,726.198 785.509,727.777 793.388,729.985L786.488,718.418L802.384,721.202C799.288,715.481 789.834,702.885 794.259,695.631C799.267,696.643 804.429,698.385 809.388,699.727C809.771,694.852 809.504,688.356 811.459,683.81C815.604,688.481 821.117,687.985 827.004,688.535L828.446,679.902C829.863,676.214 833.454,674.556 836.8,672.831C844.717,669.118 853.092,666.939 861.571,664.864C874.075,661.902 886.767,659.314 898.584,654.152C909.042,649.506 922.846,646.798 923.121,637.673L922.971,635.031L921.9,630.714C927.609,628.673 933.209,626.298 938.621,623.577C947.984,618.656 957.009,613.277 965.271,606.668C976.229,597.423 986.654,587.593 997.063,577.743C1004.78,571.123 1011.93,563.848 1019.35,556.873C1020.39,568.435 1024.01,576.973 1030.03,586.777C1040.39,599.173 1052.35,601.752 1063.41,611.902C1044.7,621.318 1021.32,609.973 1001.33,614.798C987.988,618.623 977.25,626.518 971.879,639.523C962.921,666.531 977.967,686.056 1004.33,692.418L1005.98,687.202C1011.38,690.61 1017.14,693.518 1022.75,696.535L1024.11,688.439L1034.9,696.131L1036.73,686.673L1040.58,688.16L1053.35,690.36C1052.1,685.852 1050.8,681.327 1049.57,676.827C1047.8,670.289 1038.65,660.41 1042.92,653.964C1054.35,647.585 1075.38,644.739 1088.18,643.477C1106.77,641.548 1127.4,637.977 1146.17,633.823C1152.88,630.577 1153.55,628.477 1156.22,621.689C1157.67,616.41 1163.42,611.406 1161.76,606.285C1160.76,604.339 1154.97,604.356 1153.68,602.598C1151.45,599.573 1152.96,599.76 1154.83,596.618C1158.45,597.902 1162.06,599.31 1165.44,601.16C1172.05,606.943 1181.15,627.202 1177.42,634.718C1172.68,646.756 1127.67,649.71 1115.04,655.798C1100.25,663.985 1097.92,679.86 1101.2,695.689C1105.83,711.227 1119.91,724.068 1132.66,732.635C1132.82,728.868 1133.4,724.489 1134.56,721.331C1137.42,724.66 1143.54,729.26 1147.02,730.543C1147.45,726.256 1147.45,723.368 1148.52,719.127C1153.11,722.91 1157.55,725.539 1164.82,727.852C1165.48,723.889 1166.6,721.139 1167.98,717.735C1174.14,719.427 1180.59,722.352 1187.75,721.56C1182.56,710.298 1179.26,702.802 1182.85,689.985C1188.13,676.143 1216.01,672.064 1228.26,667.802C1246.01,660.452 1246.88,652.048 1239.28,635.793C1229.1,615.85 1228.27,602.808 1233.03,592.272C1240.28,576.234 1260.49,566.005 1280.43,546.089C1271.18,540.856 1264.41,537.852 1253.4,536.452C1259.2,528.773 1271.35,520.414 1275.42,514.356C1266.03,508.589 1252.92,503.11 1243.19,502.227C1246.2,495.235 1251.64,493.035 1256.24,485.239C1250.81,482.852 1243.89,482.443 1237.41,484.298C1236.82,480.106 1236.9,478.089 1236.58,473.856C1248.53,472.743 1260.09,470.493 1271.62,466.873C1300.05,456.852 1323.69,435.639 1327.07,407.673C1332.08,366.264 1297.14,355.898 1279.77,328.56C1271.24,311.977 1287.1,304.664 1301.01,305.76C1319.76,307.231 1331.14,313.01 1342.21,320.943C1343.2,310.256 1343.64,303.123 1341.92,295.406C1364.36,298.293 1383.78,308.973 1398.61,323.481C1399.76,297.31 1395.39,275.056 1382.4,259.81C1370.67,246.042 1351.91,237.99 1323.83,237.931L1339.18,222.61C1311.66,216.093 1285.3,220.948 1259.51,226.527L1268.43,211.581C1241.88,211.173 1205.94,227.464 1186.6,250.143C1185.22,246.752 1183.8,242.706 1183.08,239.26C1166.5,254.368 1152.21,275.802 1151.89,302.198C1151.3,352.514 1196.8,363.885 1236.64,378.668C1270.58,391.264 1263.66,418.877 1227.27,425.835C1195.54,378.71 1140.78,366.356 1082.8,373.627C1051.62,377.185 1021.74,385.806 991.2,401.76C974.813,410.131 958.884,422.152 945.738,435.073C942.509,438.335 939.404,441.698 936.471,445.193L935.009,429.635C930.646,432.985 916.959,443.106 914.209,446.998L913.559,438.439C906.234,443.827 900.409,445.418 891.65,446.256L891.459,443.585C891.029,438.439 890.429,433.777 888.267,429.014L887.109,427.143C880.309,419.61 869.929,416.085 860.859,412.035C856.763,410.106 852.325,408.035 849.342,404.548C847.492,402.168 845.909,399.61 844.138,397.168C842.717,395.343 841.292,393.773 839.571,392.214C836.396,389.802 832.963,387.993 829.338,386.335C825.867,384.885 822.392,383.718 818.759,382.698C813.271,381.289 807.663,379.998 802.034,379.402C795.521,378.893 788.971,378.989 782.479,378.552C780.513,378.385 777.829,375.943 775.929,374.998C765.167,370.528 751.803,370.553 739.839,374.465C727.781,378.409 717.145,386.302 712.029,397.523C707.521,399.693 703.138,401.989 698.809,404.489C683.163,413.843 667.938,425.093 657.904,440.439C649.567,453.968 647.15,463.081 646.429,478.785L661.534,471.66C653.817,490.76 651.429,509.706 651.304,533.473C654.759,525.898 658.142,519.298 664.346,515.723C660.413,529.952 661.746,536.868 667.413,553.031L676.742,540.581C678.559,557.735 685.638,570.91 696.692,583.556ZM697.831,650.979C703.319,655.35 711.244,655.317 710.956,653.738C704.169,643.883 697.419,628.917 710.981,625.363C730.769,620.942 749.852,642.092 767.623,645.488C770.556,646.413 762.848,635.1 766.506,634.638C769.585,634.571 774.827,637.379 778.398,640.946C779.423,637.542 781.306,635.142 783.894,635.013C786.039,634.313 788.952,638.933 794.319,640.733C789.377,643.063 780.356,649.375 775.402,651.696C760.623,658.167 733.802,662.875 725.356,678.396C721.81,684.996 721.494,694.096 724.035,701.075C727.377,709.688 736.498,717.996 745.085,722.3C744.819,717.433 744.685,713.333 747.56,711.208C750.639,714.717 756.96,720.413 762.527,721.9C761.756,717.183 760.144,712.192 761.598,709.363C765.306,711.933 773.439,717.621 778.873,718.925C775.927,714.433 775.935,711.129 775.902,707.492C778.36,710.654 782.16,710.738 789.723,712.129C787.348,707.921 780.739,693.5 788.931,684.588C794.798,688.446 797.231,689.742 802.594,689.367C803.014,682.854 803.285,677.217 809.469,672.658C812.31,677.363 815.331,680.642 820.956,680.554C821.506,675.458 823.235,673.179 826.185,670.558C842.856,658.271 875.481,657.213 895.802,648C904.864,643.763 924.677,639.546 911.719,626.954C919.76,624.588 930.081,620.508 936.773,616.913C945.094,612.542 955.219,606.408 962.281,600.329C973.414,590.783 981.76,582.854 992.477,572.742C1001.25,565.392 1017.03,548.929 1026.3,541.654C1025.18,552.663 1026.34,563.813 1029.31,571.367C1041.72,597.367 1059.63,594.763 1076.99,612.558C1084.68,622.829 1011.56,619.933 1009.66,620.071C985.489,622.967 969.439,642.688 979.589,665.504C983.989,673.792 991.319,680.096 1000.05,683.408C1001.86,678.088 1000.88,677.9 1002.49,675.875C1005.56,679.379 1012.36,683.279 1017.6,686.088C1018.92,680.692 1015.89,679.683 1017.96,676.038C1020.17,678.396 1026.08,681.308 1030.23,684.458C1031.39,680.058 1029.56,677.258 1031.5,674.5C1032.7,676.713 1041.43,680.846 1045.37,681.025C1044.68,678.508 1025.53,655.538 1036.17,649.521C1055.05,640.988 1079.11,637.379 1101.26,634.4C1117.79,632.008 1130.61,634.225 1146.11,626.338C1148.93,624.708 1156.41,614.367 1156.36,611.313C1155.43,607.108 1146.02,605.179 1145.51,601.55C1144.89,598.913 1146,597.267 1147.88,595.004C1136.91,587.9 1139.03,584.475 1138.85,583.825C1146.86,587.3 1160.76,590.579 1169.38,595.617C1178.31,602.883 1189.76,630.608 1183.49,640.008C1179.51,645.404 1171.68,647.071 1164.73,649.108C1138.74,656.733 1101.56,650.825 1107.43,692.213C1109.04,702.108 1117.96,712.046 1126.31,717.842C1126.66,713.904 1128.18,710.6 1129.85,707.513C1133.05,711.217 1136.9,714.113 1140.67,717.183C1141.71,711.625 1143.57,708.817 1144.9,706.658C1147.33,709.629 1153.65,714.367 1159.01,716.204C1160.23,712.558 1161.59,708.604 1163.2,706.471C1165.74,709.271 1169.83,710.729 1176.18,711.704C1173.93,702.738 1173.55,698.854 1176.04,689.058C1177.49,682.667 1183.81,678.004 1189.49,674.263C1195.23,670.029 1202.62,668.567 1209.66,666.033C1215.61,663.871 1222.36,663.325 1227.88,660.592C1232.91,657.758 1237.79,655.933 1237.09,650.246C1232.38,637.121 1222.1,626.979 1218.86,614.308C1216.96,606.4 1216.04,594.296 1221,588.421C1233.04,566.271 1248.85,560.404 1263.18,549.288C1257.19,541.296 1250.87,544.321 1238.11,541.204C1245.41,531.113 1256.09,520.35 1262.91,515.763C1254.99,510.671 1235.21,506.183 1227.23,507.758C1225.96,502.492 1241,495.475 1245.47,489.533C1240.11,487.633 1234.79,490.567 1229.69,491.233C1228.99,487.921 1228.95,471.088 1228.4,467.704C1263.09,463.542 1306.17,454.25 1317.51,414.496C1331.63,368.825 1287.79,355.804 1271.53,327.7C1263.43,309.313 1278.55,298.608 1294.86,297.717C1314.55,296.638 1326.34,302.692 1333.71,308.104C1334.66,299.088 1333.63,291.058 1331.01,285.029C1344.13,285.758 1368.64,288.858 1388.01,302.413C1385.39,251.171 1346.88,242.675 1308.31,244.2C1312.13,239.175 1318.24,233.429 1323.39,229.225C1296.93,227.233 1272.4,228.267 1247.41,236.838C1249.19,231.438 1251.33,225.863 1256.15,221.079C1230.48,224.858 1200.36,241.5 1183.8,263.621C1182.43,260.542 1179.88,255.267 1179.06,251.813C1172.71,260.171 1162.39,273.175 1159.61,292.729C1153.35,336.6 1183.88,353.679 1215.35,363.729C1227.86,367.725 1251.38,374.396 1262.71,386.067C1270.96,394.575 1271.53,405.496 1262.68,416.258C1253.88,426.942 1231.33,433.204 1222.89,434.354C1204.38,407.221 1187.04,390.604 1152.02,384.25C1098.09,372.813 1034.55,384.133 986.123,412.771C968.085,423.85 952.327,435.771 938.427,453.554C931.319,456.588 929.556,447.679 929.302,442.567C918.377,450.621 914.685,458.204 907.873,476.517C904.969,468.471 905.264,466.483 905.573,460.938C897.06,468.942 894.627,481.892 886.469,489.642C877.573,499.425 858.794,514.329 844.91,515.217C824.256,517.125 808.785,510.913 805.635,494.158C816.96,501.3 831.61,504.75 842.014,503.725C854.294,503.929 865.573,498.325 871.144,484.95C873.994,476.767 879.489,475.542 883.16,473.458C886.131,471.663 900.677,463.033 901.423,450.079C894.748,452.613 888.273,453.421 882.531,454.075C883.227,448.292 884.977,434.042 880.906,430.396C871.402,421.888 857.877,419.904 847.739,412.317C842.164,408.45 839.752,400.479 834.181,396.621C826.244,391.383 817.873,389.15 808.427,387.258C800.039,385.013 787.069,386.158 778.544,384.913C776.41,382.058 770.114,379.6 766.602,379.1C759.589,378.067 758.656,377.421 751.914,377.963C744.106,378.85 735.844,382.717 730.094,386.95C724.273,391.688 718.948,396.504 717.569,402.388C689.756,411.025 656.202,437.725 655.748,467.021C661.444,463.271 667.144,462.096 671.148,463.088C667.389,473.958 657.923,497.308 658.219,512.588C662.844,505.642 667.506,504.388 671.598,500.925C670.523,510.738 668.135,525.733 670.381,537.746C674.277,532.213 677.073,530.583 682.56,527.95C683.281,547.367 687.194,562.558 698.602,575.408C700.848,570.658 703.031,567.783 707.714,563.829C710.973,576.492 722.127,585.979 730.281,593.254C726.044,594.158 727.631,593.892 723.814,595.363C700.623,582.938 637.381,592.475 651.623,632.304C655.785,645.617 666.044,657.654 676.652,662.804C675.889,659.704 674.556,658.067 674.769,654.958C678.66,657.775 683.239,660.892 688.935,662.192C686.956,657.492 686.098,655.708 686.335,651.346C689.731,654.975 694.289,658.5 699.706,658.921C699.269,655.413 697.823,656.333 697.831,650.979Z" style="fill:white;"/>
        </g>
    </g>
</svg>
